<?xml version="1.0" encoding="UTF-8"?>
<svg width="262px" height="88px" viewBox="0 0 262 88" version="1.1" xmlns="http://www.w3.org/2000/svg" xmlns:xlink="http://www.w3.org/1999/xlink">
    <!-- Generator: Sketch 63.1 (92452) - https://sketch.com -->
    <title>编组 2</title>
    <desc>Created with Sketch.</desc>
    <defs>
        <linearGradient x1="50%" y1="-25.8850098%" x2="50%" y2="100%" id="linearGradient-1">
            <stop stop-color="#FF7100" offset="0%"></stop>
            <stop stop-color="#FF4800" offset="100%"></stop>
        </linearGradient>
        <path d="M22.2201053,0 L217.781182,0 C219.161336,-2.53530196e-16 220.443994,0.711495662 221.174656,1.88237482 L238.676482,29.9288799 C239.486252,31.2265291 239.485101,32.8723607 238.673516,34.1688757 L221.175348,62.1223706 C220.444104,63.2905396 219.163004,64 217.78484,64 L22.213866,64 C20.8364064,64 19.5558579,63.2912593 18.8244097,62.1240496 L1.3275377,34.2033818 C0.515308347,32.9072652 0.51334441,31.2614292 1.32247821,29.9633779 L18.8255896,1.8840456 C19.5560459,0.712212564 20.8392509,-1.07860878e-15 22.2201053,0 Z" id="path-2"></path>
        <filter x="-7.6%" y="-32.8%" width="115.2%" height="159.4%" filterUnits="objectBoundingBox" id="filter-3">
            <feOffset dx="0" dy="-2" in="SourceAlpha" result="shadowOffsetOuter1"></feOffset>
            <feGaussianBlur stdDeviation="6" in="shadowOffsetOuter1" result="shadowBlurOuter1"></feGaussianBlur>
            <feColorMatrix values="0 0 0 0 0   0 0 0 0 0   0 0 0 0 0  0 0 0 0.1 0" type="matrix" in="shadowBlurOuter1"></feColorMatrix>
        </filter>
        <polygon id="path-4" points="0 0.0242285714 85.7156571 0.0242285714 85.7156571 16.64352 0 16.64352"></polygon>
        <polygon id="path-6" points="0.0461257143 0.18112 8.02550299 0.18112 8.02550299 8.22857143 0.0461257143 8.22857143"></polygon>
    </defs>
    <g id="页面-1" stroke="none" stroke-width="1" fill="none" fill-rule="evenodd">
        <g id="4A登录框_密码登录" transform="translate(-829.000000, -252.000000)">
            <g id="编组-2" transform="translate(840.000000, 266.000000)">
                <g id="矩形备份">
                    <use fill="black" fill-opacity="1" filter="url(#filter-3)" xlink:href="#path-2"></use>
                    <use fill="url(#linearGradient-1)" fill-rule="evenodd" xlink:href="#path-2"></use>
                </g>
                <g id="编组" transform="translate(77.000000, 16.000000)">
                    <g transform="translate(0.000000, 0.433051)">
                        <mask id="mask-5" fill="white">
                            <use xlink:href="#path-4"></use>
                        </mask>
                        <g id="Clip-2"></g>
                        <path d="M63.8464,10.9680914 L56.0228571,10.9680914 L56.0228571,3.16054857 L63.2100571,3.16054857 C63.4070857,3.16054857 63.5666286,3.00100571 63.5666286,2.80397714 L63.5666286,1.29266286 C63.5666286,1.09609143 63.4070857,0.936548571 63.2100571,0.936548571 L45.7252571,0.936548571 C45.5277714,0.936548571 45.3682286,1.09609143 45.3682286,1.29266286 L45.3682286,2.80397714 C45.3682286,3.00100571 45.5277714,3.16054857 45.7252571,3.16054857 L52.9115429,3.16054857 L52.9115429,10.9680914 L45.0884571,10.9680914 C44.8914286,10.9680914 44.7318857,11.1280914 44.7318857,11.3246629 L44.7318857,12.9182629 C44.7318857,13.1152914 44.8914286,13.2748343 45.0884571,13.2748343 L52.9115429,13.2748343 L52.9115429,16.2874057 C52.9115429,16.48352 53.0710857,16.64352 53.2681143,16.64352 L55.6662857,16.64352 C55.8637714,16.64352 56.0228571,16.48352 56.0228571,16.2874057 L56.0228571,13.2748343 L63.8464,13.2748343 C64.0434286,13.2748343 64.2029714,13.1152914 64.2029714,12.9182629 L64.2029714,11.3246629 C64.2029714,11.1280914 64.0434286,10.9680914 63.8464,10.9680914 L63.8464,10.9680914 Z M49.3024,9.73380571 L51.7133714,9.73380571 C51.8994286,9.73380571 52.0150857,9.58386286 51.9213714,9.40237714 L49.5195429,4.72534857 C49.4262857,4.54249143 49.2036571,4.39483429 48.9156571,4.39483429 L46.5033143,4.39483429 C46.3177143,4.39483429 46.2029714,4.54249143 46.2971429,4.72534857 L48.6971429,9.40237714 C48.7904,9.58386286 49.0125714,9.73380571 49.3024,9.73380571 L49.3024,9.73380571 Z M38.2834286,9.90797714 L36.1645714,9.90797714 L36.1645714,10.7326629 L34.064,10.7326629 L34.064,8.88489143 L37.68,8.88489143 L37.68,7.13769143 L34.064,7.13769143 L34.064,5.85906286 L38.2834286,5.85906286 L38.2834286,3.95963429 L27.0939429,3.95963429 L27.0939429,5.85906286 L31.3133714,5.85906286 L31.3133714,7.13769143 L27.6973714,7.13769143 L27.6973714,8.88489143 L31.3133714,8.88489143 L31.3133714,10.7326629 L27.0939429,10.7326629 L27.0939429,12.6320914 L38.2834286,12.6320914 L38.2834286,9.90797714 Z M17.9154286,2.31483429 L11.6347429,2.31483429 L11.6347429,0.440548571 C11.6347429,0.243977143 11.4747429,0.08352 11.2786286,0.08352 L8.73097143,0.08352 C8.53394286,0.08352 8.3744,0.243977143 8.3744,0.440548571 L8.3744,2.31483429 L2.09417143,2.31483429 C0.9376,2.31483429 0,3.25243429 0,4.40900571 L0,11.2464914 C0,12.4026057 0.9376,13.3397486 2.09417143,13.3397486 L8.3744,13.3397486 L8.3744,16.2874057 C8.3744,16.4839771 8.53394286,16.64352 8.73097143,16.64352 L11.2786286,16.64352 C11.4747429,16.64352 11.6347429,16.4839771 11.6347429,16.2874057 L11.6347429,13.3397486 L17.9154286,13.3397486 C19.0715429,13.3397486 20.0091429,12.4026057 20.0091429,11.2464914 L20.0091429,4.40900571 C20.0091429,3.25243429 19.0715429,2.31483429 17.9154286,2.31483429 L17.9154286,2.31483429 Z M2.95817143,11.0220343 L8.3744,11.0220343 L8.3744,4.63346286 L2.95817143,4.63346286 L2.95817143,11.0220343 Z M11.6347429,11.0220343 L17.0509714,11.0220343 L17.0509714,4.63346286 L11.6347429,4.63346286 L11.6347429,11.0220343 Z M66.5028571,4.63529143 L68.1700571,4.63529143 C68.3670857,4.63529143 68.5266286,4.47529143 68.5266286,4.27872 L68.5266286,3.23460571 L83.2041143,3.23460571 L83.2041143,4.27872 C83.2041143,4.47529143 83.3641143,4.63529143 83.5616,4.63529143 L85.2274286,4.63529143 C85.4253714,4.63529143 85.5849143,4.47529143 85.5849143,4.27872 L85.5849143,3.08329143 C85.5849143,2.06706286 84.7616,1.24512 83.7462857,1.24512 L77.4217143,1.24512 L77.4217143,0.380662857 C77.4217143,0.183177143 77.2617143,0.0240914286 77.0646857,0.0240914286 L74.6665143,0.0240914286 C74.4694857,0.0240914286 74.3099429,0.183177143 74.3099429,0.380662857 L74.3099429,1.24512 L67.9844571,1.24512 C66.9700571,1.24512 66.1462857,2.06706286 66.1462857,3.08329143 L66.1462857,4.27872 C66.1462857,4.47529143 66.3062857,4.63529143 66.5028571,4.63529143 L66.5028571,4.63529143 Z M40.4192,0.622034286 L24.9581714,0.622034286 C23.8016,0.622034286 22.8644571,1.55963429 22.8644571,2.71574857 L22.8644571,14.0853486 C22.8644571,15.24192 23.8016,16.1786057 24.9581714,16.1786057 L40.4192,16.1786057 C41.5753143,16.1786057 42.5133714,15.24192 42.5133714,14.0853486 L42.5133714,2.71574857 C42.5133714,1.55963429 41.5753143,0.622034286 40.4192,0.622034286 L40.4192,0.622034286 Z M25.6566857,13.9550629 L39.7211429,13.9550629 L39.7211429,2.67872 L25.6566857,2.67872 L25.6566857,13.9550629 Z M60.0187429,4.39483429 C59.7307429,4.39483429 59.5076571,4.54249143 59.4148571,4.72534857 L57.0130286,9.40237714 C56.9184,9.58386286 57.0349714,9.73380571 57.2205714,9.73380571 L59.632,9.73380571 C59.9218286,9.73380571 60.1444571,9.58386286 60.2377143,9.40237714 L62.6377143,4.72534857 C62.7314286,4.54249143 62.6166857,4.39483429 62.4310857,4.39483429 L60.0187429,4.39483429 Z M85.3586286,6.21883429 L82.2838857,6.21883429 L82.2838857,4.90683429 C82.2838857,4.70386286 82.1188571,4.53929143 81.9163429,4.53929143 L79.8221714,4.53929143 C79.6196571,4.53929143 79.4546286,4.70386286 79.4546286,4.90683429 L79.4546286,6.21883429 L72.2788571,6.21883429 L72.2788571,4.90683429 C72.2788571,4.70386286 72.1138286,4.53929143 71.9113143,4.53929143 L69.8171429,4.53929143 C69.6137143,4.53929143 69.4496,4.70386286 69.4496,4.90683429 L69.4496,6.21883429 L66.3725714,6.21883429 C66.1755429,6.21883429 66.016,6.37837714 66.016,6.57586286 L66.016,8.12420571 C66.016,8.32032 66.1755429,8.48077714 66.3725714,8.48077714 L69.4482286,8.48077714 L69.4482286,9.44489143 C69.4482286,10.5671771 69.9648,11.6309486 71.344,12.3006629 C71.8674286,12.5584914 72.5138286,12.8711771 73.2032,13.1989486 C71.9771429,13.6986057 70.8946286,13.9271771 69.7508571,13.9271771 L66.8438857,13.9262629 C66.6409143,13.9262629 66.4763429,14.0912914 66.4763429,14.2938057 L66.4763429,15.8192914 C66.4763429,16.02272 66.6409143,16.1868343 66.8438857,16.1868343 L69.7024,16.1877486 C70.8470857,16.1877486 72.2450286,15.94592 73.4290286,15.5047771 C73.9113143,15.3242057 74.8214857,14.9232914 75.8665143,14.4455771 C76.912,14.9232914 77.8221714,15.3242057 78.3044571,15.5047771 C79.4884571,15.94592 80.8864,16.1877486 82.0310857,16.1877486 L84.8896,16.1868343 C85.0921143,16.1868343 85.2571429,16.02272 85.2571429,15.8192914 L85.2571429,14.2938057 C85.2571429,14.0912914 85.0921143,13.9262629 84.8896,13.9262629 L81.9830857,13.9271771 C80.8388571,13.9271771 79.7558857,13.6986057 78.5302857,13.1989486 C79.2196571,12.8711771 79.8660571,12.5584914 80.3899429,12.3006629 C81.7682286,11.6309486 82.2852571,10.5671771 82.2852571,9.44489143 L82.2848,8.48077714 L85.3586286,8.48077714 C85.5556571,8.48077714 85.7156571,8.32032 85.7156571,8.12420571 L85.7156571,6.57586286 C85.7156571,6.37837714 85.5556571,6.21883429 85.3586286,6.21883429 L85.3586286,6.21883429 Z M79.4541714,9.16557714 C79.4541714,9.79872 79.3362286,10.2970057 78.5334857,10.6997486 C77.8884571,11.0229486 76.8246857,11.5280914 75.8665143,11.9774629 C74.9083429,11.5280914 73.8441143,11.0229486 73.1995429,10.6997486 C72.3972571,10.2970057 72.2788571,9.79872 72.2788571,9.16557714 L72.2788571,8.48077714 L79.4541714,8.48077714 L79.4541714,9.16557714 Z" id="Fill-1" fill="#FFFFFF" mask="url(#mask-5)"></path>
                    </g>
                    <path d="M43.56672,27.8229943 C43.56672,28.1288229 43.3189486,28.3765943 43.0126629,28.3765943 C42.7068343,28.3765943 42.4590629,28.1288229 42.4590629,27.8229943 C42.4590629,27.5167086 42.7068343,27.2693943 43.0126629,27.2693943 C43.3189486,27.2693943 43.56672,27.5167086 43.56672,27.8229943" id="Fill-3" fill="#FFFFFF"></path>
                    <path d="M21.8314514,28.9428571 C22.1231086,29.3693714 22.3704229,29.7954286 22.5720229,30.2214857 C22.6616229,30.4464 22.6277943,30.6141714 22.4709943,30.7266286 C22.2693943,30.8162286 22.1121371,30.76 22.0001371,30.5579429 C21.79808,30.1771429 21.5512229,29.7506286 21.2600229,29.2793143 C21.1466514,29.0996571 21.1699657,28.9542857 21.3267657,28.8413714 C21.5064229,28.7526857 21.6746514,28.7860571 21.8314514,28.9428571 M21.9329371,26.1830857 L26.4421943,26.1830857 C26.6218514,26.2059429 26.7224229,26.3179429 26.74528,26.5195429 C26.7224229,26.7216 26.6218514,26.8226286 26.4421943,26.8226286 L24.52448,26.8226286 L24.52448,27.832 L27.5864229,27.832 C27.7656229,27.8548571 27.8666514,27.9668571 27.8895086,28.1689143 C27.8666514,28.3705143 27.7656229,28.4715429 27.5864229,28.4715429 L24.52448,28.4715429 L24.52448,30.9282286 L25.76928,30.9282286 C25.5896229,30.8162286 25.5672229,30.6589714 25.70208,30.4573714 C26.08288,29.9641143 26.3969371,29.4365714 26.6442514,28.8756571 C26.7338514,28.696 26.87968,28.6397714 27.08128,28.7074286 C27.2385371,28.8198857 27.2833371,28.9766857 27.2165943,29.1782857 C26.8344229,29.9860571 26.5093943,30.536 26.2401371,30.8272 C26.1953371,30.8948571 26.1505371,30.9282286 26.1061943,30.9282286 L28.0239086,30.9282286 C28.1807086,30.9282286 28.2707657,31.0178286 28.2931657,31.1974857 C28.2707657,31.3995429 28.1807086,31.5115429 28.0239086,31.5344 L20.4856229,31.5344 C20.2835657,31.5115429 20.1829943,31.3995429 20.1829943,31.1974857 C20.1829943,31.0178286 20.2835657,30.9282286 20.4856229,30.9282286 L23.81728,30.9282286 L23.81728,28.4715429 L20.82208,28.4715429 C20.62048,28.4715429 20.5189943,28.3705143 20.5189943,28.1689143 C20.5189943,27.9668571 20.62048,27.8548571 20.82208,27.832 L23.81728,27.832 L23.81728,26.8226286 L21.9329371,26.8226286 C21.73088,26.8226286 21.6303086,26.7216 21.6303086,26.5195429 C21.6303086,26.3179429 21.73088,26.2059429 21.9329371,26.1830857 M24.0865371,23.8278857 C24.1985371,23.8278857 24.4339657,23.9618286 24.79328,24.2315429 C25.7802514,24.9497143 26.8463086,25.5101714 27.9905371,25.9142857 C28.2369371,26.0267429 28.3379657,26.2059429 28.2931657,26.4523429 C28.2031086,26.6548571 28.03488,26.6996571 27.78848,26.5872 C26.6661943,26.1830857 25.6010514,25.6336 24.5912229,24.9382857 C24.3443657,24.7357714 24.17568,24.6242286 24.0865371,24.6013714 C24.0193371,24.6013714 23.86208,24.7024 23.6152229,24.9044571 C22.6730514,25.6445714 21.6517943,26.2288 20.5528229,26.6548571 C20.3055086,26.7668571 20.13728,26.7216 20.0481371,26.5195429 C19.95808,26.2731429 20.02528,26.0939429 20.2501943,25.9814857 C21.3720229,25.6002286 22.4037943,25.0278857 23.3459657,24.2649143 C23.7048229,23.9737143 23.9521371,23.8278857 24.0865371,23.8278857" id="Fill-5" fill="#FFFFFF"></path>
                    <g transform="translate(29.714286, 23.747337)">
                        <mask id="mask-7" fill="white">
                            <use xlink:href="#path-6"></use>
                        </mask>
                        <g id="Clip-8"></g>
                        <path d="M6.81092571,1.79666286 L6.37298286,1.79666286 L6.37298286,4.69083429 L6.84384,4.69083429 C6.97869714,4.71323429 7.04589714,4.65700571 7.04589714,4.52214857 L7.04589714,2.06592 C7.04589714,1.88626286 6.96726857,1.79666286 6.81092571,1.79666286 L6.81092571,1.79666286 Z M5.29595429,1.79666286 C5.13915429,1.81906286 5.06052571,1.90912 5.06052571,2.06592 L5.06052571,4.52214857 C5.03812571,4.65700571 5.10532571,4.71323429 5.26258286,4.69083429 L5.73344,4.69083429 L5.73344,1.79666286 L5.29595429,1.79666286 Z M6.37298286,0.484205714 L6.37298286,1.19094857 L7.14692571,1.19094857 C7.48338286,1.19094857 7.65206857,1.34820571 7.65206857,1.66180571 L7.65206857,4.75803429 C7.65206857,5.13974857 7.50578286,5.31940571 7.21412571,5.29654857 L6.37298286,5.29654857 L6.37298286,7.11369143 L7.11309714,7.01266286 C6.93344,6.51940571 6.84384,6.25014857 6.84384,6.20489143 C6.77664,6.02569143 6.83241143,5.89129143 7.01252571,5.80123429 C7.19172571,5.75689143 7.32612571,5.82363429 7.41618286,6.00329143 C7.73024,6.78866286 7.93184,7.41632 8.02189714,7.88763429 C8.04384,8.04443429 7.96566857,8.15734857 7.78646857,8.22454857 C7.58441143,8.24649143 7.46098286,8.17883429 7.41618286,8.02203429 C7.39332571,7.97723429 7.34898286,7.82043429 7.28132571,7.55117714 C5.57618286,7.75323429 4.70166857,7.86523429 4.65686857,7.88763429 C4.43195429,7.88763429 4.29755429,7.78706286 4.25275429,7.58500571 C4.25275429,7.40489143 4.36475429,7.29289143 4.58921143,7.24809143 C4.61161143,7.22569143 4.99332571,7.20329143 5.73344,7.18089143 L5.73344,5.29654857 L5.06052571,5.29654857 C4.61161143,5.31940571 4.40955429,5.16214857 4.45481143,4.82523429 L4.45481143,1.69563429 C4.43195429,1.35872 4.61161143,1.19094857 4.99332571,1.19094857 L5.73344,1.19094857 L5.73344,0.484205714 C5.73344,0.282148571 5.83446857,0.18112 6.03652571,0.18112 C6.23812571,0.18112 6.35058286,0.282148571 6.37298286,0.484205714 L6.37298286,0.484205714 Z M2.90646857,1.83003429 L1.15652571,1.83003429 C1.02212571,1.83003429 0.965897143,1.88626286 0.988754286,1.99826286 L0.988754286,2.16694857 C0.988754286,2.32420571 1.05595429,2.40237714 1.19035429,2.40237714 L2.90646857,2.40237714 C3.01892571,2.40237714 3.07515429,2.33517714 3.07515429,2.20032 L3.07515429,1.99826286 C3.07515429,1.88626286 3.01892571,1.83003429 2.90646857,1.83003429 L2.90646857,1.83003429 Z M1.52681143,4.28672 C1.54921143,4.39917714 1.59401143,4.50020571 1.66166857,4.58980571 C1.72886857,4.72420571 1.79606857,4.85906286 1.86326857,4.99346286 C1.93092571,5.21792 1.87469714,5.36374857 1.69504,5.43094857 C1.49298286,5.47620571 1.35858286,5.39757714 1.29138286,5.19552 C1.24612571,5.15026286 1.20132571,5.06112 1.15652571,4.92626286 C1.08932571,4.76946286 1.03309714,4.63460571 0.988754286,4.52214857 C0.89824,4.36580571 0.94304,4.24237714 1.12269714,4.15232 C1.30235429,4.08466286 1.43675429,4.13037714 1.52681143,4.28672 L1.52681143,4.28672 Z M1.05595429,5.49860571 L2.19972571,5.49860571 C2.15492571,5.43094857 2.16589714,5.32992 2.23355429,5.19552 C2.41275429,4.90432 2.55858286,4.60123429 2.67104,4.28672 C2.71584,4.10752 2.83926857,4.05129143 3.04132571,4.11894857 C3.19812571,4.20809143 3.25435429,4.34294857 3.20955429,4.52214857 C3.16429714,4.61266286 3.11949714,4.70226286 3.07515429,4.79186286 C2.96269714,5.10592 2.85024,5.34180571 2.73824,5.49860571 L3.10852571,5.49860571 C3.24292571,5.52100571 3.31012571,5.61060571 3.31012571,5.76786286 C3.31012571,5.94752 3.24292571,6.03666286 3.10852571,6.03666286 L2.33458286,6.03666286 L2.33458286,7.38294857 C2.31218286,7.53929143 2.21115429,7.61837714 2.03149714,7.61837714 C1.85184,7.61837714 1.76269714,7.53929143 1.76269714,7.38294857 L1.76269714,6.03666286 L1.05595429,6.03666286 C0.853897143,6.03666286 0.752868571,5.94752 0.752868571,5.76786286 C0.752868571,5.61060571 0.853897143,5.52100571 1.05595429,5.49860571 L1.05595429,5.49860571 Z M0.954925714,1.25769143 L3.14235429,1.25769143 C3.50075429,1.23574857 3.66898286,1.41540571 3.64704,1.79666286 L3.64704,2.36854857 C3.66898286,2.81746286 3.48978286,3.01952 3.10852571,2.97426286 L0.954925714,2.97426286 C0.595611429,2.97426286 0.416411429,2.77220571 0.416411429,2.36854857 L0.416411429,1.79666286 C0.393554286,1.43780571 0.573211429,1.25769143 0.954925714,1.25769143 L0.954925714,1.25769143 Z M0.65184,3.47940571 L3.41161143,3.47940571 C3.90486857,3.47940571 4.14029714,3.67003429 4.11789714,4.05129143 L4.11789714,7.24809143 C4.07264,7.85380571 3.62418286,8.03346286 2.77252571,7.78706286 C2.59241143,7.69700571 2.52475429,7.57312 2.57046857,7.41632 C2.63721143,7.25952 2.76064,7.20329143 2.94029714,7.24809143 C3.34441143,7.40489143 3.54601143,7.38294857 3.54601143,7.18089143 L3.54601143,4.21952 C3.52361143,4.08466286 3.46738286,4.01746286 3.37778286,4.01746286 L0.853897143,4.01746286 C0.673782857,4.01746286 0.595611429,4.09654857 0.618468571,4.25334857 L0.618468571,7.75323429 C0.595611429,7.91003429 0.49504,7.99963429 0.315382857,8.02203429 C0.135725714,7.99963429 0.0461257143,7.91003429 0.0461257143,7.75323429 L0.0461257143,4.01746286 C0.0461257143,3.65906286 0.248182857,3.47940571 0.65184,3.47940571 L0.65184,3.47940571 Z M0.416411429,0.282148571 L3.78189714,0.282148571 C3.98395429,0.304548571 4.08452571,0.406034286 4.08452571,0.585234286 C4.08452571,0.764891429 3.98395429,0.854034286 3.78189714,0.854034286 L0.416411429,0.854034286 C0.191954286,0.854034286 0.0680685714,0.764891429 0.0461257143,0.585234286 C0.0680685714,0.406034286 0.191954286,0.304548571 0.416411429,0.282148571 L0.416411429,0.282148571 Z" id="Fill-7" fill="#FFFFFF" mask="url(#mask-7)"></path>
                    </g>
                    <path d="M52.7026286,24.4669714 C53.2187429,24.9606857 53.6672,25.4653714 54.0489143,25.9814857 C54.1380571,26.1830857 54.1161143,26.3513143 53.9817143,26.4861714 C53.8016,26.6205714 53.6562286,26.5986286 53.5442286,26.4189714 C53.1401143,25.9028571 52.7136,25.432 52.2651429,25.0050286 C52.0854857,24.8710857 52.0630857,24.7142857 52.1979429,24.5341714 C52.3547429,24.3773714 52.5229714,24.3549714 52.7026286,24.4669714 M52.2989714,26.4861714 C52.7702857,26.8450286 53.1849143,27.2934857 53.5442286,27.832 C53.6562286,28.0340571 53.6333714,28.2022857 53.4765714,28.3371429 C53.2969143,28.4715429 53.1510857,28.4496 53.0390857,28.2694857 C52.6797714,27.7538286 52.2875429,27.3163429 51.8610286,26.9570286 C51.7042286,26.8450286 51.6928,26.6996571 51.8276571,26.5195429 C51.9620571,26.3851429 52.1188571,26.3741714 52.2989714,26.4861714 M55.0582857,24.4331429 L55.0582857,28.9428571 C55.1702857,28.9209143 55.3499429,28.8976 55.5968,28.8756571 C55.7316571,28.8532571 55.8208,28.8308571 55.8660571,28.8084571 C56.2473143,29.0329143 56.2697143,29.2683429 55.9337143,29.5152 C55.4619429,29.5819429 55.1702857,29.6276571 55.0582857,29.6496 L55.0582857,31.6349714 C55.0358857,31.8141714 54.9238857,31.9156571 54.7218286,31.9376 C54.4973714,31.9156571 54.3853714,31.8141714 54.3853714,31.6349714 L54.3853714,29.7168 C52.9718857,29.9860571 51.9734857,30.1542857 51.3901714,30.2214857 C51.1881143,30.2443429 51.0537143,30.1542857 50.9865143,29.9522286 C50.9636571,29.7282286 51.0537143,29.5819429 51.2557714,29.5152 C51.3677714,29.5152 51.5588571,29.4928 51.8276571,29.4475429 C52.8594286,29.2907429 53.7124571,29.1563429 54.3853714,29.0438857 L54.3853714,24.4669714 C54.3853714,24.2877714 54.4864,24.1867429 54.6884571,24.1638857 C54.9124571,24.1867429 55.0358857,24.2768 55.0582857,24.4331429 M51.1209143,23.9956571 C51.3001143,23.9737143 51.424,24.0518857 51.4912,24.2315429 C51.536,24.4331429 51.4683429,24.5570286 51.2891429,24.6013714 C50.9750857,24.7142857 50.6272,24.7814857 50.2459429,24.8029714 L50.2459429,26.2169143 L51.3563429,26.2169143 C51.7152,26.4642286 51.7152,26.6996571 51.3563429,26.9236571 L50.2459429,26.9236571 L50.2459429,27.0918857 C50.8064,27.6304 51.2557714,28.1579429 51.5922286,28.6736 C51.6813714,28.8756571 51.648,29.0438857 51.4912,29.1782857 C51.2891429,29.3131429 51.1433143,29.2793143 51.0537143,29.0772571 C50.8964571,28.7408 50.6272,28.36 50.2459429,27.9330286 L50.2459429,31.5344 C50.2230857,31.6912 50.1110857,31.7808 49.9090286,31.8032 C49.7074286,31.7808 49.6068571,31.6912 49.6068571,31.5344 L49.6068571,28.0340571 C49.2699429,28.6626286 48.8882286,29.1901714 48.4621714,29.6157714 C48.2825143,29.7954286 48.1142857,29.8178286 47.9574857,29.6834286 C47.8450286,29.5266286 47.8564571,29.3579429 47.9913143,29.1782857 C48.6413714,28.6178286 49.1460571,27.8662857 49.5058286,26.9236571 L48.2944,26.9236571 C47.9574857,26.6772571 47.9684571,26.4413714 48.3277714,26.2169143 L49.6068571,26.2169143 L49.6068571,24.9044571 C49.2923429,24.9721143 48.9220571,25.0050286 48.496,25.0050286 C48.1142857,24.8262857 48.0923429,24.6013714 48.4288,24.3325714 C49.2809143,24.3101714 50.1787429,24.1977143 51.1209143,23.9956571" id="Fill-9" fill="#FFFFFF"></path>
                    <path d="M64.3897143,27.3611886 L61.3611429,27.3611886 C61.3830857,27.4064457 61.4164571,27.4402743 61.4617143,27.4622171 C62.1126857,28.5392457 62.6278857,29.2235886 63.0096,29.5152457 C63.6601143,29.0219886 64.1538286,28.4043886 64.4907429,27.6642743 C64.5350857,27.5074743 64.5017143,27.4064457 64.3897143,27.3611886 M63.2121143,24.2987886 L63.2121143,24.8030171 L65.4324571,24.8030171 C65.6125714,24.8263314 65.7136,24.9383314 65.7355429,25.1399314 C65.7136,25.3643886 65.6125714,25.4768457 65.4324571,25.4768457 L63.2121143,25.4768457 L63.2121143,26.6878171 L64.8605714,26.6878171 C65.3094857,26.7554743 65.4443429,27.0581029 65.2642286,27.5970743 C64.8829714,28.5616457 64.3225143,29.3694171 63.5819429,30.0199314 C64.2548571,30.5136457 64.9725714,30.8834743 65.7355429,31.1303314 C65.96,31.2199314 66.0500571,31.3771886 66.0048,31.6011886 C65.8923429,31.8032457 65.7245714,31.8709029 65.5005714,31.8032457 C64.6923429,31.4891886 63.8626286,31.0402743 63.0096,30.4574171 C62.2242286,30.9506743 61.3611429,31.36576 60.4185143,31.7026743 C60.1712,31.7694171 60.0025143,31.7026743 59.9138286,31.5006171 C59.8466286,31.27616 59.9362286,31.1303314 60.1830857,31.0631314 C61.1028571,30.8162743 61.8434286,30.4574171 62.4038857,29.9861029 C61.9997714,29.6048457 61.5060571,28.8976457 60.9236571,27.8663314 C60.8112,27.6866743 60.8221714,27.5184457 60.9565714,27.3611886 L60.8564571,27.3611886 C60.6768,27.3611886 60.5748571,27.2487314 60.5533714,27.0247314 C60.5748571,26.8226743 60.6877714,26.7106743 60.8898286,26.6878171 L62.5382857,26.6878171 L62.5382857,25.4768457 L60.6205714,25.4768457 C60.4404571,25.4768457 60.3398857,25.3643886 60.3174857,25.1399314 C60.3398857,24.9383314 60.4404571,24.8263314 60.6205714,24.8030171 L62.5382857,24.8030171 L62.5382857,24.26496 C62.5382857,24.08576 62.6502857,23.9957029 62.8752,23.9957029 C63.0777143,24.01856 63.1892571,24.1191314 63.2121143,24.2987886 M59.5773714,24.3659886 L59.5773714,25.6446171 L60.2502857,25.6446171 C60.4299429,25.6674743 60.5309714,25.7685029 60.5533714,25.9477029 C60.5309714,26.14976 60.4299429,26.2503314 60.2502857,26.2503314 L59.5773714,26.2503314 L59.5773714,27.9330743 C59.7789714,27.8663314 59.9810286,27.7648457 60.1830857,27.6304457 C60.3174857,27.5627886 60.4404571,27.6085029 60.5533714,27.7648457 C60.6205714,27.92256 60.5977143,28.0459886 60.4861714,28.1351314 C60.3284571,28.2475886 60.0258286,28.4158171 59.5773714,28.6398171 L59.5773714,31.1303314 C59.5097143,31.6912457 59.0608,31.8709029 58.2306286,31.6688457 C58.0061714,31.6011886 57.9056,31.4672457 57.928,31.2647314 C57.9956571,31.0850743 58.1410286,31.0178743 58.3654857,31.0631314 C58.792,31.1751314 58.9830857,31.1303314 58.9373714,30.9282743 L58.9373714,28.8757029 C58.8710857,28.8976457 58.7467429,28.9429029 58.568,29.01056 C58.3430857,29.0997029 58.1862857,29.1563886 58.0962286,29.1783314 C57.8717714,29.2235886 57.7268571,29.16736 57.6592,29.01056 C57.6139429,28.8085029 57.6925714,28.6626743 57.8946286,28.5726171 C57.9170286,28.5726171 57.9956571,28.5506743 58.1305143,28.5054171 C58.4441143,28.3934171 58.7138286,28.2923886 58.9373714,28.2023314 L58.9373714,26.2503314 L58.1305143,26.2503314 C57.9499429,26.2503314 57.8493714,26.14976 57.8278857,25.9477029 C57.8493714,25.7685029 57.9499429,25.6674743 58.1305143,25.6446171 L58.9373714,25.6446171 L58.9373714,24.3659886 C58.9373714,24.2091886 59.0393143,24.1191314 59.2404571,24.0967314 C59.4425143,24.1191314 59.5549714,24.2091886 59.5773714,24.3659886" id="Fill-11" fill="#FFFFFF"></path>
                </g>
            </g>
        </g>
    </g>
</svg>