<?xml version="1.0" encoding="UTF-8"?>
<svg width="51px" height="48px" viewBox="0 0 51 48" version="1.1" xmlns="http://www.w3.org/2000/svg" xmlns:xlink="http://www.w3.org/1999/xlink">
    <!-- Generator: Sketch 63.1 (92452) - https://sketch.com -->
    <title>账号登录</title>
    <desc>Created with Sketch.</desc>
    <g id="页面-1" stroke="none" stroke-width="1" fill="none" fill-rule="evenodd">
        <g id="4A登录框_扫码登录" transform="translate(-1149.000000, -308.000000)">
            <g id="账号登录" transform="translate(1148.000000, 308.000000)">
                <rect id="矩形" x="0" y="0" width="52" height="52"></rect>
                <path d="M1,0.1 C1.5,0 2.1,0 3,0 L46.7,0 C48.5,0 49.1,0.2 49.8,0.5 C50.5,0.8 51,1.4 51.3,2 C51.7,2.7 51.9,3.3 51.9,5.1 L51.9,30.8 C51.9,32.6 51.7,33.2 51.4,33.9 C51.1,34.6 50.5,35.1 49.9,35.4 C49.2,35.7 48.6,35.9 46.8,35.9 L36.9,35.9 L36.9,44.5 L28.4,34 L46.8,34 C48.1,34 48.5,33.9 48.9,33.7 C49.2,33.5 49.4,33.3 49.6,33 C49.8,32.6 49.9,32.2 49.9,30.9 L49.9,5.1 C49.9,3.8 49.8,3.4 49.6,3 C49.4,2.7 49.2,2.5 48.9,2.3 C48.5,2.1 48.1,2 46.8,2 L3,2 C2.8,2 2.7,2 2.5,2 L1,0.1 Z M37.2,45 L46.4,45 C47.2,45 47.9,45.7 47.9,46.5 C47.9,47.3 47.2,48 46.4,48 L39.7,48 L37.2,45 Z M5.7,6 L45.9,6 L45.9,30 L25.1,30 L5.7,6 Z" id="电脑登录" fill="#FF4800" fill-rule="nonzero"></path>
            </g>
        </g>
    </g>
</svg>